<svg width="66" height="31" viewBox="0 0 66 31" fill="none" xmlns="http://www.w3.org/2000/svg">
<circle cx="15" cy="15.5" r="15" fill="#168FC0"/>
<circle cx="50.2503" cy="15.5" r="15" fill="#2DB475"/>
<g clip-path="url(#clip0_0_310)">
<mask id="mask0_0_310" style="mask-type:luminance" maskUnits="userSpaceOnUse" x="6" y="8" width="16" height="15">
<path d="M6.74969 8H21.7497V23H6.74969V8Z" fill="white"/>
</mask>
<g mask="url(#mask0_0_310)">
<path d="M20.3622 9.6732L7.66535 14.52C7.02131 14.7658 7.03192 15.1379 7.68881 15.3468L10.5413 16.163L12.0407 20.4508C12.2682 21.1015 12.8693 21.2518 13.3763 20.7849L15.284 19.0285L17.9647 21.1871C18.5094 21.6096 19.067 21.4024 19.2038 20.7269L21.2842 10.4545C21.421 9.77902 21.0061 9.42746 20.3622 9.6732Z" stroke="white" stroke-width="0.878906" stroke-miterlimit="10" stroke-linecap="round" stroke-linejoin="round"/>
<path d="M10.5798 16.1438L18.2207 12.2402L13.3201 17.4475L12.453 20.959" stroke="white" stroke-width="0.878906" stroke-miterlimit="10" stroke-linecap="round" stroke-linejoin="round"/>
<path d="M13.3434 17.4652L17.9419 21.168" stroke="white" stroke-width="0.878906" stroke-miterlimit="10" stroke-linecap="round" stroke-linejoin="round"/>
</g>
</g>
<path fill-rule="evenodd" clip-rule="evenodd" d="M54.924 10.0808C53.5844 8.7397 51.8029 8.00079 49.905 8C45.9942 8 42.8113 11.1828 42.8097 15.0947C42.8092 16.3452 43.1359 17.5659 43.7568 18.6419L42.7502 22.3185L46.5115 21.3318C47.5479 21.8972 48.7147 22.1951 49.9021 22.1955H49.9051C53.8155 22.1955 56.9987 19.0124 57.0002 15.1004C57.001 13.2044 56.2637 11.4219 54.924 10.0808ZM49.905 20.9972H49.9026C48.8444 20.9968 47.8066 20.7124 46.901 20.1752L46.6858 20.0473L44.4538 20.6329L45.0495 18.4567L44.9093 18.2336C44.3189 17.2946 44.0072 16.2094 44.0077 15.0951C44.0089 11.8436 46.6545 9.19834 49.9074 9.19834C51.4826 9.19886 52.9633 9.81306 54.0766 10.9278C55.19 12.0425 55.8028 13.5241 55.8023 15.0999C55.8009 18.3516 53.1555 20.9972 49.905 20.9972ZM53.1398 16.5804C52.9626 16.4917 52.0909 16.0629 51.9283 16.0037C51.766 15.9445 51.6476 15.915 51.5296 16.0924C51.4113 16.2699 51.0716 16.6692 50.9682 16.7875C50.8647 16.9058 50.7614 16.9207 50.5841 16.8319C50.4067 16.7432 49.8355 16.5559 49.1583 15.9519C48.6313 15.4818 48.2756 14.9013 48.1721 14.7239C48.0688 14.5463 48.1712 14.4596 48.2499 14.3621C48.4418 14.1237 48.634 13.8739 48.693 13.7556C48.7522 13.6373 48.7226 13.5337 48.6782 13.445C48.634 13.3563 48.2794 12.4837 48.1317 12.1286C47.9877 11.7831 47.8417 11.8297 47.7328 11.8243C47.6295 11.8192 47.5112 11.8181 47.393 11.8181C47.2748 11.8181 47.0827 11.8624 46.9202 12.04C46.7577 12.2175 46.2998 12.6464 46.2998 13.519C46.2998 14.3916 46.935 15.2346 47.0237 15.3529C47.1123 15.4713 48.2738 17.2619 50.0522 18.0298C50.4752 18.2126 50.8053 18.3216 51.0629 18.4033C51.4876 18.5382 51.874 18.5192 52.1795 18.4736C52.5202 18.4226 53.2283 18.0446 53.3762 17.6306C53.5239 17.2164 53.5239 16.8615 53.4795 16.7875C53.4353 16.7135 53.317 16.6692 53.1398 16.5804Z" fill="white"/>
<defs>
<clipPath id="clip0_0_310">
<rect width="15" height="15" fill="white" transform="translate(6.74985 8)"/>
</clipPath>
</defs>
</svg>
