<svg width="30" height="30" viewBox="0 0 30 30" fill="none" xmlns="http://www.w3.org/2000/svg">
<circle cx="15" cy="15" r="15" fill="#2DB475"/>
<path fill-rule="evenodd" clip-rule="evenodd" d="M19.6738 9.58083C18.3342 8.2397 16.5527 7.50079 14.6548 7.5C10.744 7.5 7.56109 10.6828 7.55951 14.5947C7.55899 15.8452 7.88567 17.0659 8.5066 18.1419L7.5 21.8185L11.2613 20.8318C12.2977 21.3972 13.4645 21.6951 14.6519 21.6955H14.6549C18.5653 21.6955 21.7485 18.5124 21.75 14.6004C21.7508 12.7044 21.0135 10.9219 19.6738 9.58083ZM14.6548 20.4972H14.6524C13.5942 20.4968 12.5564 20.2124 11.6508 19.6752L11.4356 19.5473L9.20356 20.1329L9.79932 17.9567L9.65905 17.7336C9.06871 16.7946 8.75698 15.7094 8.7575 14.5951C8.75873 11.3436 11.4043 8.69834 14.6572 8.69834C16.2323 8.69886 17.713 9.31306 18.8264 10.4278C19.9398 11.5425 20.5526 13.0241 20.5521 14.5999C20.5507 17.8516 17.9053 20.4972 14.6548 20.4972ZM17.8896 16.0804C17.7123 15.9917 16.8407 15.5629 16.6781 15.5037C16.5158 15.4445 16.3974 15.415 16.2794 15.5924C16.1611 15.7699 15.8214 16.1692 15.7179 16.2875C15.6145 16.4058 15.5112 16.4207 15.3338 16.3319C15.1565 16.2432 14.5853 16.0559 13.9081 15.4519C13.3811 14.9818 13.0254 14.4013 12.9219 14.2239C12.8186 14.0463 12.921 13.9596 12.9997 13.8621C13.1916 13.6237 13.3838 13.3739 13.4428 13.2556C13.502 13.1373 13.4724 13.0337 13.428 12.945C13.3838 12.8563 13.0292 11.9837 12.8815 11.6286C12.7375 11.2831 12.5914 11.3297 12.4826 11.3243C12.3793 11.3192 12.261 11.3181 12.1428 11.3181C12.0246 11.3181 11.8325 11.3624 11.67 11.54C11.5075 11.7175 11.0496 12.1464 11.0496 13.019C11.0496 13.8916 11.6848 14.7346 11.7734 14.8529C11.8621 14.9713 13.0236 16.7619 14.802 17.5298C15.225 17.7126 15.5551 17.8216 15.8127 17.9033C16.2374 18.0382 16.6238 18.0192 16.9293 17.9736C17.27 17.9226 17.9781 17.5446 18.126 17.1306C18.2737 16.7164 18.2737 16.3615 18.2293 16.2875C18.1851 16.2135 18.0668 16.1692 17.8896 16.0804Z" fill="white"/>
</svg>
